# xmcd
#
# Track frame offsets: 
#        150
#        15607
#        31857
#        46770
#        70885
#        94302
#        133337
#        153092
#        168370
#        201315
#        242240
#        267892
#        316477
#
# Disc length: 4688 seconds
#
# Revision: 0
# Processed by: cddbd v1.5.2PL0 Copyright (c) Steve Scherf et al.
# Submitted via: ExactAudioCopy v0.90a11
#
DISCID=af124e0d
DTITLE=Thorogood,George - Lonesome George (live)
DYEAR=1900
DGENRE=
TTITLE0=Bye bye little girl
TTITLE1=Cocaine blues
TTITLE2=Wanted man
TTITLE3=Married Blues
TTITLE4=Who do you love
TTITLE5=Johnny B Goode
TTITLE6=Same thing
TTITLE7=I cant be satisfied
TTITLE8=Move it on over
TTITLE9=Sky was crying
TTITLE10=It wasnt me
TTITLE11=House Rent Blues - one scotch one bourbon one beer
TTITLE12=Reelin and rockin
EXTD=
EXTT0=
EXTT1=
EXTT2=
EXTT3=
EXTT4=
EXTT5=
EXTT6=
EXTT7=
EXTT8=
EXTT9=
EXTT10=
EXTT11=
EXTT12=
PLAYORDER=
